# xmcd
#
# Track frame offsets: 
#        150
#        17405
#        37578
#        59118
#        86130
#        107238
#        133850
#        152773
#        172030
#        197438
#        213553
#
# Disc length: 3123 seconds
#
# Revision: 2
# Processed by: cddbd v1.5.2PL0 Copyright (c) Steve Scherf et al.
# Submitted via: ExactAudioCopyFreeDBPlugin 1.0
#
DISCID=950c310b
DTITLE=DeBarge - Greatest Hits
DYEAR=1992
DGENRE=Soul
TTITLE0=Rhythm Of The Night
TTITLE1=Who's Holding Donna Now?
TTITLE2=You Wear It Well
TTITLE3=Stop! Don't Tease Me
TTITLE4=I Like It
TTITLE5=All This Love
TTITLE6=Time Will Reveal
TTITLE7=Love Me In A Special Way
TTITLE8=Share My World
TTITLE9=Single Heart
TTITLE10=The Heart Is Not So Smart
EXTD=
EXTT0=
EXTT1=
EXTT2=
EXTT3=
EXTT4=
EXTT5=
EXTT6=(Interlude)
EXTT7=
EXTT8=(Come Runnin')
EXTT9=(Interlude)
EXTT10=
PLAYORDER=
